<?xml version="1.0" encoding="utf-8"?>
<!-- Generator: Adobe Illustrator 23.0.3, SVG Export Plug-In . SVG Version: 6.00 Build 0)  -->
<svg version="1.1" id="圖層_1" xmlns="http://www.w3.org/2000/svg" xmlns:xlink="http://www.w3.org/1999/xlink" x="0px" y="0px"
	 width="30px" height="30px" viewBox="0 0 30 30" style="enable-background:new 0 0 30 30;" xml:space="preserve">
<style type="text/css">
	.st0{fill:#9A8873;}
	.st1{fill:#4B101B;}
</style>
<g>
	<circle class="st0" cx="15" cy="15" r="15"/>
	<g>
		<g>
			<path class="st1" d="M18.3,23.6h-6.6c-2.9,0-5.3-2.4-5.3-5.3v-6.6c0-2.9,2.4-5.3,5.3-5.3h6.6c2.9,0,5.3,2.4,5.3,5.3v6.6
				C23.6,21.2,21.2,23.6,18.3,23.6z M11.7,8.3c-1.9,0-3.4,1.5-3.4,3.4v6.6c0,1.9,1.5,3.4,3.4,3.4h6.6c1.9,0,3.4-1.5,3.4-3.4v-6.6
				c0-1.9-1.5-3.4-3.4-3.4H11.7z"/>
			<path class="st1" d="M15,19.4c-2.4,0-4.4-2-4.4-4.4s2-4.4,4.4-4.4s4.4,2,4.4,4.4S17.4,19.4,15,19.4z M15,12.3
				c-1.5,0-2.7,1.2-2.7,2.7c0,1.5,1.2,2.7,2.7,2.7s2.7-1.2,2.7-2.7C17.7,13.5,16.5,12.3,15,12.3z"/>
			<path class="st1" d="M20.4,10.3c0,0.4-0.3,0.7-0.7,0.7s-0.7-0.3-0.7-0.7s0.3-0.7,0.7-0.7S20.4,9.9,20.4,10.3z"/>
		</g>
	</g>
</g>
</svg>
