<?xml version="1.0" encoding="utf-8"?>
<!-- Generator: Adobe Illustrator 23.0.3, SVG Export Plug-In . SVG Version: 6.00 Build 0)  -->
<svg version="1.1" id="圖層_1" xmlns="http://www.w3.org/2000/svg" xmlns:xlink="http://www.w3.org/1999/xlink" x="0px" y="0px"
	 width="30px" height="30px" viewBox="0 0 30 30" style="enable-background:new 0 0 30 30;" xml:space="preserve">
<style type="text/css">
	.st0{fill:#9A8873;}
	.st1{fill:#4B101B;}
</style>
<g>
	<circle class="st0" cx="15" cy="15" r="15"/>
	<path class="st1" d="M21.5,8.4c0,0-1-1.2-2.8-1.2c-2.1,0.1-4.1,1.4-3.8,4.7c0,0-3.2,1-8.1-3.7c0,0-1.6,2.6,1.2,5
		c0,0-0.8,0.2-1.8-0.4c0,0-0.6,2.2,3,3.8c0,0-1.2,0.3-1.8,0c0,0,0.3,2.3,3.6,2.9c0,0-1.7,1.7-5.6,1.6c0,0,8.2,4.2,13.9-1.2
		c4.1-3.8,3.5-9,3.5-9s1.2-0.4,1.9-1.7c0,0-1.4,0.4-2.1,0.4c0,0,1.5-0.9,1.6-2C24.1,7.7,22.8,8.6,21.5,8.4z"/>
</g>
</svg>
